PathFileType	4	(X/Y/Z)	1H_nor_med_left.trc
DataRate	CameraRate	NumFrames	NumMarkers	Units	OrigDataRate	OrigDataStartFrame	OrigNumFrames
250.00	250.00	8	18	mm	250.00	4776	7640
Frame#	Time	c7	r_should	l_should	clavicle	r_upa	r_elb_l	r_elb_m	r_low	r_wri_l	r_wri_m	r_met	l_upa	l_elb_l	l_elb_m	l_low	l_wri_l	l_wri_m	l_met
	X1	Y1	Z1	X2	Y2	Z2	X3	Y3	Z3	X4	Y4	Z4	X5	Y5	Z5	X6	Y6	Z6	X7	Y7	Z7	X8	Y8	Z8	X9	Y9	Z9	X10	Y10	Z10	X11	Y11	Z11	X12	Y12	Z12	X13	Y13	Z13	X14	Y14	Z14	X15	Y15	Z15	X16	Y16	Z16	X17	Y17	Z17	X18	Y18	Z18
4776	19.10000	1229.31348	1425.32544	148.47322	1271.99683	1349.87158	311.86414	1246.21704	1380.75903	-14.05070	1339.24841	1283.18909	138.47697	1288.16992	1131.57080	355.09116	1295.05188	1041.01196	369.37381	1225.30505	1012.50494	308.05527	1312.02209	905.25665	359.85849	1325.38452	779.65381	343.87106	1261.38660	781.95355	386.51013	1340.65808	717.90009	389.07846	1281.67957	1193.39270	-114.58634	1307.19128	1120.96448	-134.50481	1239.16797	1082.30762	-76.28356	1373.61426	1095.72742	-56.26527	1418.04224	1110.04004	48.40446	1410.24731	1033.31091	43.21714	1492.44128	1087.67139	82.07713
4777	19.10400	1229.36121	1425.31775	148.54936	1271.91992	1349.81165	311.93967	1246.45801	1380.74377	-14.03641	1339.31226	1283.18237	138.60718	1288.02087	1131.49927	355.13968	1295.14697	1040.73889	369.49603	1225.17297	1012.45917	308.05246	1311.87585	905.18982	359.89978	1325.25159	779.59528	343.91595	1261.21497	781.87982	386.49042	1340.48486	717.83893	389.12250	1281.56079	1193.28882	-114.53555	1306.95508	1120.61267	-134.47395	1238.95837	1082.22375	-76.30422	1373.55579	1094.62231	-56.41473	1418.36072	1108.20166	48.27798	1410.17603	1031.50061	42.57042	1492.72815	1085.35864	81.64717
4778	19.10800	1229.41211	1425.31018	148.61226	1271.84314	1349.75586	312.01590	1246.72034	1380.72595	-14.02900	1339.38184	1283.16541	138.74113	1287.87524	1131.43567	355.17709	1295.04968	1040.61389	369.55020	1225.04700	1012.41864	308.05017	1311.72632	905.13605	359.94107	1325.09387	779.52197	343.93970	1261.02954	781.80969	386.47116	1340.31140	717.77863	389.17191	1281.46143	1193.17847	-114.48741	1306.74182	1120.24097	-134.43488	1238.76111	1082.13367	-76.32231	1373.47668	1093.54333	-56.57230	1418.67310	1106.34204	48.09171	1412.23633	1029.49463	42.27192	1493.01404	1083.02637	81.21888
4779	19.11200	1229.46436	1425.30566	148.67291	1271.76270	1349.70178	312.08856	1247.00916	1380.70435	-14.01938	1339.45105	1283.14600	138.87172	1287.72522	1131.37012	355.21124	1294.91089	1040.54761	369.60175	1224.91748	1012.37402	308.04431	1311.57092	905.07294	359.97241	1324.88013	779.39136	343.95337	1260.84277	781.73444	386.44888	1340.13123	717.71973	389.21851	1281.38281	1193.05798	-114.43526	1306.55957	1119.87427	-134.38628	1238.57178	1082.04187	-76.34476	1373.41016	1092.46472	-56.72374	1418.98059	1104.49023	47.90343	1416.96814	1027.32532	42.44501	1493.29712	1080.66821	80.78752
4780	19.11600	1229.51843	1425.29529	148.72681	1271.67078	1349.64441	312.15369	1247.31323	1380.68335	-14.01650	1339.51904	1283.12634	139.00781	1287.58594	1131.31433	355.25772	1294.75513	1040.49146	369.64148	1224.79028	1012.32648	308.03271	1311.42261	905.00677	360.01218	1324.62292	779.19354	343.91379	1260.65735	781.66827	386.43353	1339.95300	717.65869	389.26520	1281.32300	1192.92407	-114.37681	1306.40405	1119.51709	-134.31996	1238.39514	1081.95007	-76.36519	1373.33826	1091.34937	-56.86694	1419.27173	1102.63635	47.72021	1418.08325	1025.56335	42.09851	1493.56372	1078.31946	80.35220
4781	19.12000	1229.58228	1425.28308	148.77338	1271.57129	1349.59241	312.21973	1247.63586	1380.66211	-14.01440	1339.58923	1283.09900	139.14993	1287.44690	1131.26038	355.30035	1294.59888	1040.43799	369.67038	1224.68481	1012.27167	308.01059	1311.26941	904.95135	360.05008	1324.31348	778.93085	343.82309	1260.46582	781.61145	386.42084	1339.76770	717.59607	389.30478	1281.27942	1192.79370	-114.32721	1306.25208	1119.16113	-134.25049	1238.23303	1081.85266	-76.38405	1373.29126	1090.26025	-57.01480	1419.11829	1101.41504	46.91118	1416.14551	1023.89764	41.20887	1493.82141	1075.96240	79.88808
4782	19.12400	1229.65198	1425.27051	148.80989	1271.46448	1349.53406	312.29129	1247.96936	1380.64612	-14.00819	1339.66003	1283.06226	139.27400	1287.31824	1131.21814	355.33762	1294.44116	1040.38025	369.68939	1224.57068	1012.22516	307.98108	1311.11401	904.90173	360.08978	1324.05872	778.66199	343.72159	1260.28699	781.55707	386.40512	1339.57690	717.53778	389.34607	1281.26086	1192.65674	-114.27251	1306.10181	1118.80945	-134.19185	1238.08069	1081.74207	-76.40761	1373.26367	1089.13306	-57.18912	1418.41174	1101.00549	45.26778	1411.27209	1022.18701	39.73842	1494.45679	1073.26978	79.77151
4783	19.12800	1229.72766	1425.26318	148.84142	1271.35852	1349.47754	312.35800	1248.30481	1380.63245	-14.00094	1339.72839	1283.02332	139.39174	1287.19446	1131.17651	355.36575	1294.28552	1040.32751	369.71603	1224.44653	1012.18365	307.95840	1310.96240	904.85150	360.12851	1323.96619	778.48419	343.67181	1260.10339	781.49664	386.38419	1339.39270	717.48071	389.38879	1281.26233	1192.52002	-114.20802	1305.96619	1118.45532	-134.13214	1237.93542	1081.63928	-76.42230	1373.24719	1088.01721	-57.38290	1418.45276	1099.48926	44.65395	1409.95581	1020.36237	38.90229	1495.19043	1070.48840	79.74141
